<?xml version="1.0" encoding="utf-8"?>
<!-- Generator: Adobe Illustrator 19.1.0, SVG Export Plug-In . SVG Version: 6.00 Build 0)  -->
<svg version="1.1" xmlns="http://www.w3.org/2000/svg" xmlns:xlink="http://www.w3.org/1999/xlink" x="0px" y="0px"
	 viewBox="0 0 90 90" style="enable-background:new 0 0 90 90;" xml:space="preserve">
<style type="text/css">
	.st0{display:none;}
	.st1{display:inline;}
	.st2{fill:#CBD933;}
	.st3{display:inline;fill:#CBD933;}
</style>
<g id="Layer_1" class="st0">
	<g class="st1">
		<g>
			<g>
				<path class="st2" d="M42.6,54.3c-8.5,0-15.5-7-15.5-15.5s7-15.5,15.5-15.5S58,30.3,58,38.8S51.1,54.3,42.6,54.3z M42.6,25.6
					c-7.3,0-13.3,5.9-13.3,13.3c0,7.3,5.9,13.3,13.3,13.3c7.3,0,13.3-5.9,13.3-13.3S49.9,25.6,42.6,25.6z"/>
			</g>
			<g>
				<path class="st2" d="M39.6,46.6c-0.2,0-0.4,0-0.5-0.1c-0.4-0.2-0.6-0.6-0.6-1V32.1c0-0.4,0.2-0.8,0.6-1c0.4-0.2,0.8-0.2,1.2,0.1
					l9.7,6.7c0.3,0.2,0.5,0.6,0.5,0.9s-0.2,0.7-0.5,0.9l-9.7,6.7C40.1,46.6,39.8,46.6,39.6,46.6z M40.7,34.2v9.2l6.6-4.6L40.7,34.2z
					"/>
			</g>
		</g>
		<g>
			<path class="st2" d="M83.3,62.8H6.7c-1.9,0-3.4-1.5-3.4-3.4V18.3c0-1.9,1.5-3.4,3.4-3.4h76.7c1.9,0,3.4,1.5,3.4,3.4v41.1
				C86.7,61.3,85.2,62.8,83.3,62.8z M6.7,17.1c-0.7,0-1.2,0.5-1.2,1.2v41.1c0,0.7,0.5,1.2,1.2,1.2h76.7c0.7,0,1.2-0.5,1.2-1.2V18.3
				c0-0.7-0.5-1.2-1.2-1.2H6.7z"/>
		</g>
		<g>
			<path class="st2" d="M84.4,72.6H22c-0.6,0-1.1-0.5-1.1-1.1s0.5-1.1,1.1-1.1h62.5c0.6,0,1.1,0.5,1.1,1.1
				C85.6,72.1,85.1,72.6,84.4,72.6z"/>
		</g>
		<g>
			<path class="st2" d="M9.8,72.6H5.7c-0.6,0-1.1-0.5-1.1-1.1s0.5-1.1,1.1-1.1h4.1c0.6,0,1.1,0.5,1.1,1.1
				C10.9,72.1,10.4,72.6,9.8,72.6z"/>
		</g>
		<g>
			<path class="st2" d="M15.9,75.2c-2,0-3.7-1.6-3.7-3.7c0-2,1.6-3.7,3.7-3.7s3.7,1.6,3.7,3.7C19.6,73.5,18,75.2,15.9,75.2z
				 M15.9,69.7c-1,0-1.8,0.8-1.8,1.8c0,1,0.8,1.8,1.8,1.8c1,0,1.8-0.8,1.8-1.8C17.7,70.5,16.9,69.7,15.9,69.7z"/>
		</g>
	</g>
</g>
<g id="Layer_3">
	<g>
		<path class="st2" d="M73.9,59.1V46.7v-1.2H52.7l-5.3-5.3V31h16.9V16.6H26.9V31h18.1v8.2l-6.3,6.3H17.2v1.2v12.2
			c-3.6,0.4-6.5,3.5-6.5,7.2c0,4,3.3,7.4,7.4,7.4s7.4-3.3,7.4-7.4c0-3.5-2.4-6.4-5.7-7.1V47.9h19.4l5.9,5.9v5.1
			c-3.7,0.4-6.6,3.5-6.6,7.2c0,4,3.3,7.4,7.4,7.4s7.4-3.3,7.4-7.4c0-3.4-2.4-6.3-5.5-7.1v-6.3l4.9-4.9h18.9v11
			c-3.9,0.2-6.9,3.4-6.9,7.2c0,4,3.3,7.4,7.4,7.4s7.4-3.3,7.4-7.4C79.2,62.7,76.9,59.9,73.9,59.1z M29.3,19h32.5v9.6H29.3V19z
			 M22.9,66.1c0,2.7-2.2,4.9-4.9,4.9S13,68.9,13,66.1c0-2.8,2.2-4.9,4.9-4.9S22.9,63.3,22.9,66.1z M50.5,66.1c0,2.7-2.2,4.9-4.9,4.9
			c-2.8,0-4.9-2.2-4.9-4.9c0-2.8,2.2-4.9,4.9-4.9C48.3,61.2,50.5,63.3,50.5,66.1z M45.7,51l-4.6-4.6l4.6-4.6l4.6,4.6L45.7,51z
			 M71.9,70.9c-2.7,0-4.9-2.2-4.9-4.9c0-2.8,2.2-4.9,4.9-4.9s4.9,2.2,4.9,4.9C76.9,68.7,74.6,70.9,71.9,70.9z"/>
	</g>
</g>
<g id="Layer_2" class="st0">
	<path class="st3" d="M66.4,35.6c-4.6,0-8.5,3.2-9.2,7.8l0,0H37.9l0,0c-0.2-1.2-0.5-2.3-1-3.4l-0.1-0.2l18.3-10.6l0.1,0.2
		c1.8,2.2,4.5,3.5,7.3,3.5c1.6,0,3.2-0.4,4.7-1.3c4.4-2.6,6-8.3,3.4-12.8c-1.7-2.9-4.8-4.7-8.1-4.7c-1.6,0-3.2,0.4-4.7,1.3
		c-3.9,2.3-5.7,7.2-4,11.5l0.1,0.2L35.5,37.9l-0.1-0.2c-0.9-1.2-2-2.1-3.3-2.9c-1.8-1-3.9-1.6-5.9-1.6c-4.2,0-8.2,2.3-10.3,6
		c-3.3,5.7-1.3,13,4.3,16.3c1.8,1,3.9,1.6,5.9,1.6c3.7,0,7.2-1.8,9.5-4.7l0.1-0.2l18.2,10.5L53.8,63c-1.7,4.3,0.1,9.2,4,11.5
		c1.4,0.8,3,1.3,4.7,1.3h0c3.3,0,6.4-1.8,8.1-4.7c2.6-4.5,1-10.2-3.4-12.8c-1.4-0.8-3-1.3-4.7-1.3c-2.8,0-5.5,1.3-7.3,3.5l-0.1,0.2
		l-0.2-0.1l-18-10.4L37,50c0.5-1.1,0.8-2.2,0.9-3.4l0-0.1h19.2l0,0.1c0.7,4.5,4.6,7.9,9.2,7.9c5.1,0,9.3-4.2,9.3-9.4
		C75.8,39.9,71.6,35.6,66.4,35.6z M59,17.6c1.1-0.6,2.2-0.9,3.4-0.9c2.5,0,4.8,1.3,6,3.5c1.9,3.3,0.8,7.6-2.5,9.5
		c-1.1,0.6-2.2,0.9-3.4,0.9c-2.5,0-4.8-1.3-6-3.5C54.6,23.8,55.7,19.5,59,17.6z M34.3,50c-1.7,2.9-4.8,4.8-8.2,4.8
		c-1.7,0-3.3-0.4-4.7-1.3c-4.5-2.6-6.1-8.5-3.5-13c1.7-2.9,4.8-4.8,8.2-4.8c1.7,0,3.3,0.4,4.7,1.3C35.4,39.6,37,45.4,34.3,50z
		 M56.5,62.9c1.2-2.1,3.5-3.5,6-3.5c1.2,0,2.4,0.3,3.4,0.9c3.3,1.9,4.4,6.2,2.5,9.5c-1.2,2.1-3.5,3.5-6,3.5c-1.2,0-2.4-0.3-3.4-0.9
		C55.7,70.5,54.6,66.2,56.5,62.9z M66.4,52c-3.8,0-6.9-3.1-6.9-7s3.1-7,6.9-7c3.8,0,6.9,3.1,6.9,7S70.2,52,66.4,52z"/>
</g>
</svg>
