<?xml version="1.0" encoding="utf-8"?>
<!-- Generator: Adobe Illustrator 19.1.0, SVG Export Plug-In . SVG Version: 6.00 Build 0)  -->
<svg version="1.1" xmlns="http://www.w3.org/2000/svg" xmlns:xlink="http://www.w3.org/1999/xlink" x="0px" y="0px"
	 viewBox="0 0 90 90" style="enable-background:new 0 0 90 90;" xml:space="preserve">
<style type="text/css">
	.st0{display:none;}
	.st1{display:inline;}
	.st2{fill:#CBD933;}
	.st3{fill:#CBD933;stroke:#CBD933;stroke-miterlimit:10;}
	.st4{display:inline;fill:#CBD933;}
</style>
<g id="Layer_1" class="st0">
	<g class="st1">
		<g>
			<g>
				<path class="st2" d="M42.6,54.3c-8.5,0-15.5-7-15.5-15.5s7-15.5,15.5-15.5S58,30.3,58,38.8S51.1,54.3,42.6,54.3z M42.6,25.6
					c-7.3,0-13.3,5.9-13.3,13.3c0,7.3,5.9,13.3,13.3,13.3c7.3,0,13.3-5.9,13.3-13.3S49.9,25.6,42.6,25.6z"/>
			</g>
			<g>
				<path class="st2" d="M39.6,46.6c-0.2,0-0.4,0-0.5-0.1c-0.4-0.2-0.6-0.6-0.6-1V32.1c0-0.4,0.2-0.8,0.6-1c0.4-0.2,0.8-0.2,1.2,0.1
					l9.7,6.7c0.3,0.2,0.5,0.6,0.5,0.9s-0.2,0.7-0.5,0.9l-9.7,6.7C40.1,46.6,39.8,46.6,39.6,46.6z M40.7,34.2v9.2l6.6-4.6L40.7,34.2z
					"/>
			</g>
		</g>
		<g>
			<path class="st2" d="M83.3,62.8H6.7c-1.9,0-3.4-1.5-3.4-3.4V18.3c0-1.9,1.5-3.4,3.4-3.4h76.7c1.9,0,3.4,1.5,3.4,3.4v41.1
				C86.7,61.3,85.2,62.8,83.3,62.8z M6.7,17.1c-0.7,0-1.2,0.5-1.2,1.2v41.1c0,0.7,0.5,1.2,1.2,1.2h76.7c0.7,0,1.2-0.5,1.2-1.2V18.3
				c0-0.7-0.5-1.2-1.2-1.2H6.7z"/>
		</g>
		<g>
			<path class="st2" d="M84.4,72.6H22c-0.6,0-1.1-0.5-1.1-1.1s0.5-1.1,1.1-1.1h62.5c0.6,0,1.1,0.5,1.1,1.1
				C85.6,72.1,85.1,72.6,84.4,72.6z"/>
		</g>
		<g>
			<path class="st2" d="M9.8,72.6H5.7c-0.6,0-1.1-0.5-1.1-1.1s0.5-1.1,1.1-1.1h4.1c0.6,0,1.1,0.5,1.1,1.1
				C10.9,72.1,10.4,72.6,9.8,72.6z"/>
		</g>
		<g>
			<path class="st2" d="M15.9,75.2c-2,0-3.7-1.6-3.7-3.7c0-2,1.6-3.7,3.7-3.7s3.7,1.6,3.7,3.7C19.6,73.5,18,75.2,15.9,75.2z
				 M15.9,69.7c-1,0-1.8,0.8-1.8,1.8c0,1,0.8,1.8,1.8,1.8c1,0,1.8-0.8,1.8-1.8C17.7,70.5,16.9,69.7,15.9,69.7z"/>
		</g>
	</g>
</g>
<g id="Layer_3" class="st0">
	<g class="st1">
		<path class="st2" d="M73.9,59.1V46.7v-1.2H52.7l-5.3-5.3V31h16.9V16.6H26.9V31h18.1v8.2l-6.3,6.3H17.2v1.2v12.2
			c-3.6,0.4-6.5,3.5-6.5,7.2c0,4,3.3,7.4,7.4,7.4s7.4-3.3,7.4-7.4c0-3.5-2.4-6.4-5.7-7.1V47.9h19.4l5.9,5.9v5.1
			c-3.7,0.4-6.6,3.5-6.6,7.2c0,4,3.3,7.4,7.4,7.4s7.4-3.3,7.4-7.4c0-3.4-2.4-6.3-5.5-7.1v-6.3l4.9-4.9h18.9v11
			c-3.9,0.2-6.9,3.4-6.9,7.2c0,4,3.3,7.4,7.4,7.4s7.4-3.3,7.4-7.4C79.2,62.7,76.9,59.9,73.9,59.1z M29.3,19h32.5v9.6H29.3V19z
			 M22.9,66.1c0,2.7-2.2,4.9-4.9,4.9S13,68.9,13,66.1c0-2.8,2.2-4.9,4.9-4.9S22.9,63.3,22.9,66.1z M50.5,66.1c0,2.7-2.2,4.9-4.9,4.9
			c-2.8,0-4.9-2.2-4.9-4.9c0-2.8,2.2-4.9,4.9-4.9C48.3,61.2,50.5,63.3,50.5,66.1z M45.7,51l-4.6-4.6l4.6-4.6l4.6,4.6L45.7,51z
			 M71.9,70.9c-2.7,0-4.9-2.2-4.9-4.9c0-2.8,2.2-4.9,4.9-4.9s4.9,2.2,4.9,4.9C76.9,68.7,74.6,70.9,71.9,70.9z"/>
	</g>
</g>
<g id="Layer_4" class="st0">
	<g class="st1">
		<path class="st3" d="M77.9,70.5H12.1c-2.9,0-5.3-2.4-5.3-5.3V20.3c0-2.9,2.4-5.3,5.3-5.3h65.8c2.9,0,5.3,2.4,5.3,5.3v44.9
			C83.2,68.1,80.9,70.5,77.9,70.5z M12.1,16.5c-2.1,0-3.8,1.7-3.8,3.8v44.9c0,2.1,1.7,3.8,3.8,3.8h65.8c2.1,0,3.8-1.7,3.8-3.8V20.3
			c0-2.1-1.7-3.8-3.8-3.8H12.1z"/>
		<path class="st3" d="M82.5,59.8h-75c-0.4,0-0.8-0.3-0.8-0.8c0-0.4,0.3-0.8,0.8-0.8h75c0.4,0,0.8,0.3,0.8,0.8
			C83.2,59.5,82.9,59.8,82.5,59.8z"/>
		<path class="st3" d="M58.3,75.1h-27c-0.4,0-0.8-0.3-0.8-0.8c0-0.4,0.3-0.8,0.8-0.8h27c0.4,0,0.8,0.3,0.8,0.8
			C59.1,74.7,58.7,75.1,58.3,75.1z"/>
		<path class="st3" d="M26.5,36.5c-1.8,0-3.3-1.5-3.3-3.3c0-1.8,1.5-3.3,3.3-3.3c1.8,0,3.3,1.5,3.3,3.3C29.8,35,28.4,36.5,26.5,36.5
			z M26.5,31.4c-1,0-1.8,0.8-1.8,1.8s0.8,1.8,1.8,1.8c1,0,1.8-0.8,1.8-1.8S27.5,31.4,26.5,31.4z"/>
		<path class="st3" d="M44.9,47.7c-1.8,0-3.3-1.5-3.3-3.3s1.5-3.3,3.3-3.3s3.3,1.5,3.3,3.3C48.2,46.3,46.7,47.7,44.9,47.7z
			 M44.9,42.7c-1,0-1.8,0.8-1.8,1.8s0.8,1.8,1.8,1.8s1.8-0.8,1.8-1.8S45.8,42.7,44.9,42.7z"/>
		<path class="st3" d="M56.3,31.4c-1.8,0-3.3-1.5-3.3-3.3s1.5-3.3,3.3-3.3c1.8,0,3.3,1.5,3.3,3.3C59.6,29.9,58.1,31.4,56.3,31.4z
			 M56.3,26.4c-1,0-1.8,0.8-1.8,1.8c0,1,0.8,1.8,1.8,1.8c1,0,1.8-0.8,1.8-1.8C58.1,27.2,57.3,26.4,56.3,26.4z"/>
		<path class="st3" d="M17.4,52.2c-0.1,0-0.2,0-0.3-0.1c-0.4-0.2-0.5-0.6-0.3-1l8-15.7c0.2-0.4,0.6-0.5,1-0.3c0.4,0.2,0.5,0.6,0.3,1
			l-8,15.7C18,52.1,17.7,52.2,17.4,52.2z"/>
		<path class="st3" d="M42.3,43.5c-0.1,0-0.3,0-0.4-0.1l-13.4-8.5c-0.4-0.2-0.5-0.7-0.2-1.1s0.7-0.5,1.1-0.2l13.4,8.5
			c0.4,0.2,0.5,0.7,0.2,1.1C42.8,43.4,42.6,43.5,42.3,43.5z"/>
		<path class="st3" d="M46.7,43.5c-0.1,0-0.3,0-0.4-0.1c-0.3-0.2-0.4-0.7-0.2-1.1l8.3-12c0.2-0.3,0.7-0.4,1.1-0.2
			c0.3,0.2,0.4,0.7,0.2,1.1l-8.3,12C47.2,43.4,46.9,43.5,46.7,43.5z"/>
		<path class="st3" d="M58.7,28.1c-0.4,0-0.7-0.3-0.8-0.7c-0.1-0.4,0.2-0.8,0.7-0.9l16-2.1c0.4-0.1,0.8,0.2,0.9,0.7
			c0.1,0.4-0.2,0.8-0.7,0.9L58.7,28.1C58.8,28.1,58.8,28.1,58.7,28.1z"/>
	</g>
</g>
<g id="Layer_5">
	<g transform="translate(0,-952.36216)">
		<path class="st2" d="M52.5,962.4c-12.4,0-22.9,8.3-26.3,19.6H14.1c-2.3,0-4.1,1.9-4.1,4.1v42.2c0,2.3,1.9,4.1,4.1,4.1h24.1
			c2.3,0,4.1-1.9,4.1-4.1v-12.9c3.1,1.3,6.6,2,10.2,2c15.2,0,27.5-12.3,27.5-27.5C80,974.7,67.7,962.4,52.5,962.4z M52.5,964.6
			c13.9,0,25.2,11.3,25.2,25.2c0,13.9-11.3,25.2-25.2,25.2s-25.2-11.3-25.2-25.2C27.3,975.9,38.6,964.6,52.5,964.6z M38.6,975.2
			c-2.7,0-4.9,2.2-4.9,4.9v19.6c0,2.7,2.2,4.9,4.9,4.9h27.8c2.7,0,4.9-2.2,4.9-4.9v-19.6c0-2.7-2.2-4.9-4.9-4.9H38.6z M38.6,977.4
			h27.8c1.5,0,2.6,1.2,2.6,2.6v19.6c0,1.5-1.2,2.6-2.6,2.6H38.6c-1.5,0-2.6-1.2-2.6-2.6v-19.6C36,978.6,37.1,977.4,38.6,977.4z
			 M47.9,982.4c-0.6,0-1.1,0.5-1.1,1.1v12.7c0,0.6,0.5,1.1,1.1,1.1c0.2,0,0.4-0.1,0.6-0.2l10.2-6.4c0.5-0.3,0.7-1,0.4-1.6
			c-0.1-0.1-0.2-0.3-0.4-0.4l-10.2-6.4C48.3,982.4,48.1,982.3,47.9,982.4L47.9,982.4z M14.1,984.2h11.5c-0.3,1.3-0.4,2.5-0.5,3.8
			c-0.1-0.1-0.3-0.1-0.4-0.1h-4.5c-0.6,0-1.1,0.5-1.1,1.1c0,0.6,0.5,1.1,1.1,1.1c0,0,0,0,0,0h4.5c0.1,0,0.3,0,0.4-0.1
			c0.1,10.6,6.2,19.7,15,24.2v13.9c0,1.1-0.8,1.9-1.9,1.9H14.1c-1.1,0-1.9-0.8-1.9-1.9v-42.2C12.3,985,13.1,984.2,14.1,984.2
			L14.1,984.2z M49.1,985.5l6.9,4.3l-6.9,4.3L49.1,985.5L49.1,985.5z M26.2,1023.3c-1,0-1.9,0.8-1.9,1.9c0,1,0.8,1.9,1.9,1.9
			s1.9-0.8,1.9-1.9C28.1,1024.2,27.2,1023.3,26.2,1023.3z"/>
	</g>
</g>
<g id="Layer_2" class="st0">
	<path class="st4" d="M66.4,35.6c-4.6,0-8.5,3.2-9.2,7.8l0,0H37.9l0,0c-0.2-1.2-0.5-2.3-1-3.4l-0.1-0.2l18.3-10.6l0.1,0.2
		c1.8,2.2,4.5,3.5,7.3,3.5c1.6,0,3.2-0.4,4.7-1.3c4.4-2.6,6-8.3,3.4-12.8c-1.7-2.9-4.8-4.7-8.1-4.7c-1.6,0-3.2,0.4-4.7,1.3
		c-3.9,2.3-5.7,7.2-4,11.5l0.1,0.2L35.5,37.9l-0.1-0.2c-0.9-1.2-2-2.1-3.3-2.9c-1.8-1-3.9-1.6-5.9-1.6c-4.2,0-8.2,2.3-10.3,6
		c-3.3,5.7-1.3,13,4.3,16.3c1.8,1,3.9,1.6,5.9,1.6c3.7,0,7.2-1.8,9.5-4.7l0.1-0.2l18.2,10.5L53.8,63c-1.7,4.3,0.1,9.2,4,11.5
		c1.4,0.8,3,1.3,4.7,1.3h0c3.3,0,6.4-1.8,8.1-4.7c2.6-4.5,1-10.2-3.4-12.8c-1.4-0.8-3-1.3-4.7-1.3c-2.8,0-5.5,1.3-7.3,3.5l-0.1,0.2
		l-0.2-0.1l-18-10.4L37,50c0.5-1.1,0.8-2.2,0.9-3.4l0-0.1h19.2l0,0.1c0.7,4.5,4.6,7.9,9.2,7.9c5.1,0,9.3-4.2,9.3-9.4
		C75.8,39.9,71.6,35.6,66.4,35.6z M59,17.6c1.1-0.6,2.2-0.9,3.4-0.9c2.5,0,4.8,1.3,6,3.5c1.9,3.3,0.8,7.6-2.5,9.5
		c-1.1,0.6-2.2,0.9-3.4,0.9c-2.5,0-4.8-1.3-6-3.5C54.6,23.8,55.7,19.5,59,17.6z M34.3,50c-1.7,2.9-4.8,4.8-8.2,4.8
		c-1.7,0-3.3-0.4-4.7-1.3c-4.5-2.6-6.1-8.5-3.5-13c1.7-2.9,4.8-4.8,8.2-4.8c1.7,0,3.3,0.4,4.7,1.3C35.4,39.6,37,45.4,34.3,50z
		 M56.5,62.9c1.2-2.1,3.5-3.5,6-3.5c1.2,0,2.4,0.3,3.4,0.9c3.3,1.9,4.4,6.2,2.5,9.5c-1.2,2.1-3.5,3.5-6,3.5c-1.2,0-2.4-0.3-3.4-0.9
		C55.7,70.5,54.6,66.2,56.5,62.9z M66.4,52c-3.8,0-6.9-3.1-6.9-7s3.1-7,6.9-7c3.8,0,6.9,3.1,6.9,7S70.2,52,66.4,52z"/>
</g>
</svg>
